PathFileType  4	(X/Y/Z) C:\Users\HPL 1\Documents/Temp/Sub278498/Files_W_HJCs/
DataRate	CameraRate	NumFrames	NumMarkers	Units	OrigDataRate	OrigDataStartFrame	OrigNumFrames
50.0	50.0	9	42	mm	50.0	114	227
Frame#	Time  	r_knee			r_shank(antsup)			r_ankle			r_calc			r_5meta			r_toe			L_knee			L_shank(ant_sup)			L_ankle			L_calc			L_5meta			L_toe			r_mknee			r_mankle			L_mknee			L_mankle			r_sh2			r_sh3			r_sh4			L_sh2			L_sh3			r_thigh1			r_thigh2			r_thigh3			r_thigh4			r_thigh5			L_thigh1			L_thigh2			L_thigh3			L_thigh4			r.ASIS			r.PSIS			L.ASIS			L.PSIS			C7			R_Shoulder			L_Shoulder			Sternum			R_HJC			L_HJC			R_HJC_reg			L_HJC_reg			
		X1	Y1	Z1	X2	Y2	Z2	X3	Y3	Z3	X4	Y4	Z4	X5	Y5	Z5	X6	Y6	Z6	X7	Y7	Z7	X8	Y8	Z8	X9	Y9	Z9	X10	Y10	Z10	X11	Y11	Z11	X12	Y12	Z12	X13	Y13	Z13	X14	Y14	Z14	X15	Y15	Z15	X16	Y16	Z16	X17	Y17	Z17	X18	Y18	Z18	X19	Y19	Z19	X20	Y20	Z20	X21	Y21	Z21	X22	Y22	Z22	X23	Y23	Z23	X24	Y24	Z24	X25	Y25	Z25	X26	Y26	Z26	X27	Y27	Z27	X28	Y28	Z28	X29	Y29	Z29	X30	Y30	Z30	X31	Y31	Z31	X32	Y32	Z32	X33	Y33	Z33	X34	Y34	Z34	X35	Y35	Z35	X36	Y36	Z36	X37	Y37	Z37	X38	Y38	Z38	X39	Y39	Z39	X40	Y40	Z40	X41	Y41	Z41	X42	Y42	Z42	

114	2.26000	774.09338	578.78925	-409.62057	788.17670	491.89413	-404.76886	735.10217	114.31090	-409.10455	646.45428	71.42149	-452.13248	847.13269	39.40475	-382.29929	886.13367	73.57772	-445.12259	768.47272	573.19812	-732.62219	793.27515	455.88025	-733.85114	705.34503	113.42733	-732.10394	629.75854	73.49978	-681.32355	821.01721	42.48148	-777.85101	868.11981	70.98198	-721.39636	771.86896	557.95374	-535.64319	747.09753	120.79070	-505.35526	786.54565	562.61731	-610.24823	736.94635	120.79307	-642.23511	784.68939	371.72705	-401.46457	713.23944	491.75064	-392.84113	702.70959	375.84506	-386.13135	705.51569	476.13333	-752.46191	693.04028	354.04355	-753.71954	843.71118	898.48932	-393.35852	842.17517	783.54755	-396.36420	796.54663	750.66772	-383.87863	730.75555	893.08435	-382.26733	735.60748	775.99835	-394.19336	857.18738	839.40283	-753.05402	858.40485	701.50629	-743.98553	741.97119	838.41144	-771.76440	746.13995	704.17133	-752.42395	867.82507	1094.52698	-447.48584	678.75903	1127.09131	-540.25714	877.15308	1095.94006	-705.48456	687.03888	1125.82275	-622.78137	726.92859	1608.85632	-589.08099	770.81030	1582.63135	-423.53683	794.73779	1575.81189	-765.18793	868.78998	1535.96777	-581.42151	798.73873	1006.08391	-459.67913	806.17266	1007.52858	-695.92235	793.39341	1018.99025	-490.27729	810.40194	1016.38436	-659.79922
115	2.28000	774.12213	578.77179	-409.68710	788.20020	491.90778	-404.78833	735.11340	114.33189	-409.10669	646.49561	71.35753	-452.14862	847.10828	39.37502	-382.30920	886.13562	73.55172	-445.10333	768.44580	573.15234	-732.63477	793.25891	455.85916	-733.84747	705.35168	113.42473	-732.11090	629.72931	73.49783	-681.35406	821.00812	42.46167	-777.87268	868.11304	70.98435	-721.41541	771.87445	557.96777	-535.68518	747.08795	120.77892	-505.35925	786.59625	562.58289	-610.24213	736.92645	120.71622	-642.27899	784.68390	371.76367	-401.50580	713.23517	491.78406	-392.82404	702.72314	375.84509	-386.17719	705.47467	476.08307	-752.55115	693.04266	354.06552	-753.78912	843.80688	898.49774	-393.43576	842.04797	783.56830	-396.37152	796.59052	750.65100	-383.88849	730.83502	893.08539	-382.34525	735.67657	775.96692	-394.21658	857.23981	839.40863	-753.09473	858.42474	701.50519	-744.03302	742.10437	838.43195	-771.71588	746.17737	704.18591	-752.46710	867.96210	1094.57031	-447.51843	678.87842	1127.03540	-540.32391	877.33557	1095.92822	-705.49921	687.15393	1125.77441	-622.81787	727.11029	1608.79236	-589.05756	771.01764	1582.69958	-423.53171	794.96252	1575.84277	-765.16962	869.07556	1536.05994	-581.41278	798.90082	1006.09731	-459.69319	806.36645	1007.49815	-695.93568	793.59025	1018.96670	-490.30768	810.59507	1016.37558	-659.81920
116	2.30000	774.16595	578.76385	-409.71439	788.23621	491.94315	-404.79031	735.08606	114.32841	-409.10483	646.47070	71.30600	-452.20297	847.11969	39.38430	-382.27484	886.15497	73.49881	-445.12531	768.43146	573.08276	-732.66309	793.26038	455.90311	-733.87677	705.40472	113.39363	-732.09650	629.77692	73.42005	-681.36774	821.01337	42.43988	-777.84595	868.11230	70.95508	-721.41553	771.93890	557.91345	-535.68713	747.09619	120.79285	-505.36255	786.47778	562.51770	-610.27271	736.97437	120.77018	-642.23773	784.68176	371.75967	-401.51398	713.24567	491.78195	-392.84433	702.73645	375.88226	-386.17792	705.52240	476.10846	-752.53809	693.01935	354.11752	-753.68744	843.91052	898.55341	-393.43213	842.27191	783.56622	-396.43802	796.72528	750.67358	-383.88019	730.92841	893.11670	-382.42783	735.81311	776.02441	-394.20721	857.39551	839.36768	-753.16754	858.46826	701.46106	-744.05725	742.17041	838.38574	-771.81232	746.23267	704.16144	-752.45862	868.08472	1094.55078	-447.60269	678.95728	1126.93958	-540.33453	877.48065	1095.97290	-705.48346	687.39026	1125.67798	-622.88873	727.25818	1608.76941	-589.06091	771.24951	1582.75854	-423.47104	795.20435	1575.85010	-765.11084	869.29907	1536.06775	-581.40247	799.08325	1006.04077	-459.75014	806.58843	1007.49768	-695.99104	793.62827	1018.96711	-490.51253	810.93421	1016.37808	-659.92806
117	2.32000	774.20972	578.75220	-409.71277	788.26105	491.90878	-404.80417	735.10364	114.33346	-409.10184	646.47205	71.35471	-452.18320	847.11786	39.39268	-382.29242	886.15155	73.53121	-445.11234	768.44354	573.04449	-732.69391	793.28363	455.87323	-733.86938	705.40259	113.41635	-732.11383	629.78156	73.46346	-681.32495	820.98700	42.42717	-777.86084	868.13605	70.97993	-721.42206	771.99841	557.92719	-535.70715	747.13373	120.78014	-505.35312	786.45862	562.49835	-610.31586	736.84454	120.68812	-642.24506	784.70013	371.75491	-401.49954	713.29980	491.78391	-392.87567	702.72650	375.87701	-386.21341	705.54657	476.11517	-752.57019	693.07397	354.09647	-753.68585	843.98492	898.55591	-393.44891	842.53973	783.60883	-396.39429	796.84387	750.72052	-383.83105	731.04669	893.13745	-382.45020	735.88678	776.00806	-394.25043	857.62952	839.35632	-753.26642	858.59796	701.41486	-744.04218	742.38098	838.35596	-771.87634	746.45868	704.16571	-752.44495	868.20087	1094.54663	-447.55368	679.04041	1126.91272	-540.40240	877.60956	1096.00964	-705.40332	687.49799	1125.63416	-622.89880	727.37195	1608.73962	-589.01721	771.56287	1582.81067	-423.40710	795.43945	1575.92236	-765.00360	869.50342	1536.04028	-581.32599	799.18499	1006.02860	-459.73838	806.76465	1007.50515	-695.97677	793.72230	1019.00676	-490.47031	811.08813	1016.38151	-659.85898
118	2.34000	774.24854	578.78131	-409.74820	788.37457	491.93109	-404.78400	735.10126	114.31379	-409.12506	646.48633	71.34856	-452.15036	847.13086	39.41247	-382.26068	886.13232	73.53359	-445.10760	768.40118	573.08051	-732.72864	793.27094	455.85675	-733.87689	705.39899	113.39707	-732.09174	629.76312	73.49150	-681.32477	821.00409	42.43938	-777.87036	868.13049	70.96804	-721.41754	772.05487	557.94641	-535.73346	747.10028	120.73849	-505.35458	786.47675	562.52020	-610.35187	736.89471	120.69547	-642.23309	784.74176	371.75537	-401.47217	713.31274	491.81595	-392.91187	702.78906	375.87320	-386.22028	705.49384	476.11810	-752.53577	693.10052	354.09415	-753.67810	844.12091	898.50183	-393.46466	842.82758	783.57886	-396.44516	796.94635	750.74323	-383.87469	731.18408	893.19385	-382.43213	735.95758	776.05103	-394.24936	857.77338	839.31219	-753.32428	858.68567	701.37476	-744.06335	742.49078	838.34735	-771.93994	746.56952	704.16968	-752.47388	868.31482	1094.52783	-447.57141	679.22003	1126.86255	-540.42114	877.85663	1096.04407	-705.35736	687.58850	1125.65027	-623.01227	727.55457	1608.83472	-588.97345	771.83490	1582.80103	-423.35504	795.65369	1575.98022	-764.97382	869.70020	1535.99890	-581.30908	799.31209	1005.99790	-459.78186	806.98857	1007.53476	-696.01675	794.02900	1018.93603	-490.44182	811.19054	1016.44996	-659.81462
119	2.36000	774.32410	578.75494	-409.77457	788.31006	491.86572	-404.84610	735.10516	114.33462	-409.11356	646.52948	71.38860	-452.11481	847.13525	39.40118	-382.24261	886.16278	73.53159	-445.07935	768.47614	573.13361	-732.74707	793.31732	455.92139	-733.93048	705.40338	113.40701	-732.08154	629.79034	73.56644	-681.29340	821.01282	42.50127	-777.82465	868.14868	70.96658	-721.40131	772.19055	557.92841	-535.71484	747.12793	120.72851	-505.34766	786.44409	562.47827	-610.35431	736.80548	120.67188	-642.27008	784.79016	371.74646	-401.50552	713.35022	491.78183	-392.87814	702.79211	375.85532	-386.23901	705.55865	476.14859	-752.55334	693.15173	354.05652	-753.78162	844.23303	898.55542	-393.45529	842.69366	783.59351	-396.33234	796.98700	750.72894	-383.93069	731.29016	893.13416	-382.55826	736.05701	776.06934	-394.32898	857.81274	839.06989	-753.39026	858.80371	701.35217	-744.08008	742.67413	838.32092	-771.98041	746.78467	704.18164	-752.57941	868.42090	1094.48511	-447.56842	679.37213	1126.90149	-540.46185	878.03827	1096.08997	-705.32428	687.71265	1125.69543	-623.03290	727.71985	1608.86926	-588.87878	772.10657	1582.84875	-423.28320	795.89136	1576.09143	-764.89044	869.87250	1536.02490	-581.22571	799.40008	1005.97721	-459.81618	807.14135	1007.58862	-696.04845	794.16538	1018.96995	-490.41756	811.27254	1016.49621	-659.77832
120	2.38000	774.39539	578.77942	-409.78476	788.43347	491.92007	-404.81430	735.12726	114.31084	-409.10422	646.51868	71.41704	-452.12726	847.14435	39.38393	-382.28946	886.14319	73.54285	-445.04727	768.56702	573.12750	-732.74646	793.39355	455.91022	-733.94177	705.41272	113.42776	-732.05359	629.79724	73.54697	-681.24768	821.03711	42.49255	-777.86127	868.15680	70.97103	-721.37238	772.27502	557.90680	-535.72430	747.10596	120.76109	-505.35471	786.58136	562.48468	-610.28632	736.96918	120.76636	-642.22919	784.83466	371.72107	-401.50534	713.41614	491.79257	-392.84698	702.84045	375.88885	-386.27103	705.63031	476.14920	-752.60266	693.12000	354.02982	-753.70813	844.35046	898.53790	-393.44748	842.99011	783.61652	-396.35596	797.11084	750.77228	-383.87332	731.44324	893.16913	-382.59894	736.12421	776.08203	-394.34378	857.93372	839.06750	-753.40546	858.92938	701.35516	-744.12183	742.78113	838.31696	-772.05841	746.46204	704.18451	-752.61798	868.56244	1094.49011	-447.55936	679.49121	1126.87817	-540.50244	878.25671	1096.10303	-705.31744	687.81598	1125.71741	-623.07574	727.80475	1608.89990	-588.77411	772.27417	1582.87878	-423.28162	796.15192	1576.11755	-764.81982	870.04694	1536.03479	-581.16199	799.52672	1005.97498	-459.83535	807.32875	1007.60465	-696.06550	794.37597	1018.90530	-490.43290	811.45117	1016.52443	-659.80163
121	2.40000	774.45862	578.75995	-409.78122	788.50555	491.88080	-404.88892	735.13287	114.33337	-409.09708	646.48035	71.42007	-452.12308	847.12140	39.36212	-382.30286	886.14960	73.52217	-445.08185	768.62433	573.10968	-732.77777	793.37775	455.89856	-733.96875	705.39746	113.43582	-732.03882	629.78784	73.52554	-681.27698	821.00928	42.48943	-777.87921	868.13812	70.95247	-721.40894	772.32465	557.88300	-535.77374	747.11987	120.72620	-505.35349	786.66675	562.48865	-610.29877	736.99921	120.73547	-642.27606	784.87830	371.74283	-401.50278	713.52350	491.79327	-392.82919	702.88269	375.91513	-386.27979	705.65350	476.14041	-752.57611	693.20166	354.07104	-753.67133	844.49860	898.54321	-393.45590	843.06537	783.61926	-396.38242	797.24536	750.76831	-383.83295	731.44550	893.12744	-382.69989	736.25940	776.05725	-394.46594	858.32153	839.22058	-753.44006	859.09900	701.27393	-744.12793	743.02905	838.33997	-772.16827	746.54492	704.23737	-752.70270	868.78198	1094.46643	-447.55798	679.66638	1126.84656	-540.56268	878.46783	1096.10669	-705.31378	687.94763	1125.68347	-623.11749	727.98914	1608.77112	-588.68048	772.44617	1582.91101	-423.22055	796.32300	1576.14258	-764.72644	870.19342	1536.09583	-581.08252	799.71689	1005.95039	-459.86342	807.54270	1007.59485	-696.09268	794.62253	1018.89937	-490.39045	811.61296	1016.51309	-659.76603
122	2.42000	774.54120	578.74573	-409.80988	788.57397	491.89056	-404.87347	735.13928	114.32193	-409.12006	646.52429	71.37142	-452.14435	847.14294	39.37143	-382.30148	886.17303	73.50617	-445.09708	768.69781	573.07526	-732.77588	793.44055	455.94891	-733.95789	705.46222	113.43990	-732.07135	629.81665	73.59067	-681.29614	821.01984	42.46734	-777.84863	868.17413	70.91392	-721.39716	772.42242	557.87213	-535.79913	747.14978	120.77525	-505.36707	786.68030	562.45782	-610.34131	737.04828	120.77787	-642.19861	784.97107	371.74609	-401.55551	713.60858	491.85083	-392.87741	702.92444	375.93875	-386.31619	705.66260	476.16016	-752.57318	693.19727	354.10095	-753.65906	844.64984	898.52997	-393.51260	843.36938	783.65332	-396.46222	797.41864	750.76080	-383.88791	731.58746	893.19788	-382.71939	736.36816	776.09399	-394.48532	858.47162	839.25336	-753.46240	859.16742	701.34485	-744.07098	743.09210	838.36505	-772.16168	747.15350	704.22076	-752.67236	868.93207	1094.44299	-447.56653	679.84033	1126.81860	-540.53040	878.27960	1095.82446	-705.21149	688.02368	1125.77661	-623.21552	728.03741	1608.85132	-588.66614	772.58112	1582.97107	-423.13354	796.49066	1576.15198	-764.69366	870.21289	1536.27026	-581.00677	799.71800	1005.96951	-459.77772	807.42479	1007.40401	-696.01226	794.79890	1018.60991	-490.38556	811.55645	1016.47617	-659.70495
